TITLE ""
FILE "P1Q_j_1684-1697.mp3" MP3
  TRACK 01 AUDIO
    TITLE "P1Q_j_1684-1697_01"
    INDEX 01 00:00:00
  TRACK 02 AUDIO
    TITLE "P1Q_j_1684-1697_02"
    INDEX 01 00:00:12
  TRACK 03 AUDIO
    TITLE "P1Q_j_1684-1697_03"
    INDEX 01 00:01:59
  TRACK 04 AUDIO
    TITLE "P1Q_j_1684-1697_04"
    INDEX 01 00:02:03
  TRACK 05 AUDIO
    TITLE "P1Q_j_1684-1697_05"
    INDEX 01 00:04:32
  TRACK 06 AUDIO
    TITLE "P1Q_j_1684-1697_06"
    INDEX 01 00:04:51
  TRACK 07 AUDIO
    TITLE "P1Q_j_1684-1697_07"
    INDEX 01 00:09:23
  TRACK 08 AUDIO
    TITLE "P1Q_j_1684-1697_08"
    INDEX 01 00:09:68
  TRACK 09 AUDIO
    TITLE "P1Q_j_1684-1697_09"
    INDEX 01 00:11:06
  TRACK 10 AUDIO
    TITLE "P1Q_j_1684-1697_10"
    INDEX 01 00:11:28
  TRACK 11 AUDIO
    TITLE "P1Q_j_1684-1697_11"
    INDEX 01 00:15:41
  TRACK 12 AUDIO
    TITLE "P1Q_j_1684-1697_12"
    INDEX 01 00:15:61
  TRACK 13 AUDIO
    TITLE "P1Q_j_1684-1697_13"
    INDEX 01 00:19:49
  TRACK 14 AUDIO
    TITLE "P1Q_j_1684-1697_14"
    INDEX 01 00:20:19
  TRACK 15 AUDIO
    TITLE "P1Q_j_1684-1697_15"
    INDEX 01 00:21:67
  TRACK 16 AUDIO
    TITLE "P1Q_j_1684-1697_16"
    INDEX 01 00:22:12
  TRACK 17 AUDIO
    TITLE "P1Q_j_1684-1697_17"
    INDEX 01 00:26:10
  TRACK 18 AUDIO
    TITLE "P1Q_j_1684-1697_18"
    INDEX 01 00:26:29
  TRACK 19 AUDIO
    TITLE "P1Q_j_1684-1697_19"
    INDEX 01 00:29:59
  TRACK 20 AUDIO
    TITLE "P1Q_j_1684-1697_20"
    INDEX 01 00:30:31
  TRACK 21 AUDIO
    TITLE "P1Q_j_1684-1697_21"
    INDEX 01 00:32:59
  TRACK 22 AUDIO
    TITLE "P1Q_j_1684-1697_22"
    INDEX 01 00:33:04
  TRACK 23 AUDIO
    TITLE "P1Q_j_1684-1697_23"
    INDEX 01 00:35:20
  TRACK 24 AUDIO
    TITLE "P1Q_j_1684-1697_24"
    INDEX 01 00:35:42
  TRACK 25 AUDIO
    TITLE "P1Q_j_1684-1697_25"
    INDEX 01 00:39:63
  TRACK 26 AUDIO
    TITLE "P1Q_j_1684-1697_26"
    INDEX 01 00:40:33
  TRACK 27 AUDIO
    TITLE "P1Q_j_1684-1697_27"
    INDEX 01 00:41:43
  TRACK 28 AUDIO
    TITLE "P1Q_j_1684-1697_28"
    INDEX 01 00:41:72
  TRACK 29 AUDIO
    TITLE "P1Q_j_1684-1697_29"
    INDEX 01 00:46:12
  TRACK 30 AUDIO
    TITLE "P1Q_j_1684-1697_30"
    INDEX 01 00:46:30
  TRACK 31 AUDIO
    TITLE "P1Q_j_1684-1697_31"
    INDEX 01 00:52:11
  TRACK 32 AUDIO
    TITLE "P1Q_j_1684-1697_32"
    INDEX 01 00:52:56
  TRACK 33 AUDIO
    TITLE "P1Q_j_1684-1697_33"
    INDEX 01 00:54:10
  TRACK 34 AUDIO
    TITLE "P1Q_j_1684-1697_34"
    INDEX 01 00:54:31
  TRACK 35 AUDIO
    TITLE "P1Q_j_1684-1697_35"
    INDEX 01 00:55:52
  TRACK 36 AUDIO
    TITLE "P1Q_j_1684-1697_36"
    INDEX 01 00:55:72
  TRACK 37 AUDIO
    TITLE "P1Q_j_1684-1697_37"
    INDEX 01 01:00:50
  TRACK 38 AUDIO
    TITLE "P1Q_j_1684-1697_38"
    INDEX 01 01:01:20
  TRACK 39 AUDIO
    TITLE "P1Q_j_1684-1697_39"
    INDEX 01 01:02:58
  TRACK 40 AUDIO
    TITLE "P1Q_j_1684-1697_40"
    INDEX 01 01:03:03
  TRACK 41 AUDIO
    TITLE "P1Q_j_1684-1697_41"
    INDEX 01 01:06:43
  TRACK 42 AUDIO
    TITLE "P1Q_j_1684-1697_42"
    INDEX 01 01:06:60
  TRACK 43 AUDIO
    TITLE "P1Q_j_1684-1697_43"
    INDEX 01 01:12:29
  TRACK 44 AUDIO
    TITLE "P1Q_j_1684-1697_44"
    INDEX 01 01:12:74
  TRACK 45 AUDIO
    TITLE "P1Q_j_1684-1697_45"
    INDEX 01 01:14:60
  TRACK 46 AUDIO
    TITLE "P1Q_j_1684-1697_46"
    INDEX 01 01:15:04
  TRACK 47 AUDIO
    TITLE "P1Q_j_1684-1697_47"
    INDEX 01 01:17:05
  TRACK 48 AUDIO
    TITLE "P1Q_j_1684-1697_48"
    INDEX 01 01:17:23
  TRACK 49 AUDIO
    TITLE "P1Q_j_1684-1697_49"
    INDEX 01 01:22:55
  TRACK 50 AUDIO
    TITLE "P1Q_j_1684-1697_50"
    INDEX 01 01:23:25
  TRACK 51 AUDIO
    TITLE "P1Q_j_1684-1697_51"
    INDEX 01 01:24:62
  TRACK 52 AUDIO
    TITLE "P1Q_j_1684-1697_52"
    INDEX 01 01:25:07
  TRACK 53 AUDIO
    TITLE "P1Q_j_1684-1697_53"
    INDEX 01 01:30:74
  TRACK 54 AUDIO
    TITLE "P1Q_j_1684-1697_54"
    INDEX 01 01:31:19
  TRACK 55 AUDIO
    TITLE "P1Q_j_1684-1697_55"
    INDEX 01 01:34:09
  TRACK 56 AUDIO
    TITLE "P1Q_j_1684-1697_56"
    INDEX 01 01:34:54
  TRACK 57 AUDIO
    TITLE "P1Q_j_1684-1697_57"
    INDEX 01 01:36:08
  TRACK 58 AUDIO
    TITLE "P1Q_j_1684-1697_58"
    INDEX 01 01:36:30
  TRACK 59 AUDIO
    TITLE "P1Q_j_1684-1697_59"
    INDEX 01 01:40:61
  TRACK 60 AUDIO
    TITLE "P1Q_j_1684-1697_60"
    INDEX 01 01:41:06
  TRACK 61 AUDIO
    TITLE "P1Q_j_1684-1697_61"
    INDEX 01 01:45:35
  TRACK 62 AUDIO
    TITLE "P1Q_j_1684-1697_62"
    INDEX 01 01:46:07
  TRACK 63 AUDIO
    TITLE "P1Q_j_1684-1697_63"
    INDEX 01 01:47:47
  TRACK 64 AUDIO
    TITLE "P1Q_j_1684-1697_64"
    INDEX 01 01:47:67
  TRACK 65 AUDIO
    TITLE "P1Q_j_1684-1697_65"
    INDEX 01 01:54:36
  TRACK 66 AUDIO
    TITLE "P1Q_j_1684-1697_66"
    INDEX 01 01:54:55
  TRACK 67 AUDIO
    TITLE "P1Q_j_1684-1697_67"
    INDEX 01 01:58:71
  TRACK 68 AUDIO
    TITLE "P1Q_j_1684-1697_68"
    INDEX 01 01:59:43
  TRACK 69 AUDIO
    TITLE "P1Q_j_1684-1697_69"
    INDEX 01 02:01:02
  TRACK 70 AUDIO
    TITLE "P1Q_j_1684-1697_70"
    INDEX 01 02:01:24
  TRACK 71 AUDIO
    TITLE "P1Q_j_1684-1697_71"
    INDEX 01 02:04:52
  TRACK 72 AUDIO
    TITLE "P1Q_j_1684-1697_72"
    INDEX 01 02:04:71
  TRACK 73 AUDIO
    TITLE "P1Q_j_1684-1697_73"
    INDEX 01 02:09:04
  TRACK 74 AUDIO
    TITLE "P1Q_j_1684-1697_74"
    INDEX 01 02:09:49
  TRACK 75 AUDIO
    TITLE "P1Q_j_1684-1697_75"
    INDEX 01 02:11:13
  TRACK 76 AUDIO
    TITLE "P1Q_j_1684-1697_76"
    INDEX 01 02:11:34
  TRACK 77 AUDIO
    TITLE "P1Q_j_1684-1697_77"
    INDEX 01 02:14:09
  TRACK 78 AUDIO
    TITLE "P1Q_j_1684-1697_78"
    INDEX 01 02:14:31
  TRACK 79 AUDIO
    TITLE "P1Q_j_1684-1697_79"
    INDEX 01 02:18:42
  TRACK 80 AUDIO
    TITLE "P1Q_j_1684-1697_80"
    INDEX 01 02:19:12
  TRACK 81 AUDIO
    TITLE "P1Q_j_1684-1697_81"
    INDEX 01 02:20:51
  TRACK 82 AUDIO
    TITLE "P1Q_j_1684-1697_82"
    INDEX 01 02:20:70
  TRACK 83 AUDIO
    TITLE "P1Q_j_1684-1697_83"
    INDEX 01 02:24:70
  TRACK 84 AUDIO
    TITLE "P1Q_j_1684-1697_84"
    INDEX 01 02:25:17
  TRACK 85 AUDIO
    TITLE "P1Q_j_1684-1697_85"
    INDEX 01 02:29:01
